<svg xmlns="http://www.w3.org/2000/svg" width="320.568" height="70.955" viewBox="0 0 320.568 70.955">
  <g id="Logo_Dark" transform="translate(-352 -80)">
    <path id="Subtraction_2" data-name="Subtraction 2" d="M119.194,80.955A35.165,35.165,0,0,1,84,45.761,35.731,35.731,0,0,1,119.761,10h20.73c-5.273,3.467-10.505,8.874-16,16.529A76.918,76.918,0,0,0,118.2,38.376h1.232a7.693,7.693,0,0,1,7.655,7.655v1.232a76.759,76.759,0,0,0,11.847-6.281c7.292-5.226,12.531-10.211,16.019-15.236V45.194a35.731,35.731,0,0,1-35.761,35.761ZM146.646,40.6c-1.594,1.3-3.33,2.629-5.159,3.937a76.375,76.375,0,0,1-12.613,6.727h.009l-1.793.8v.64a5.76,5.76,0,0,0,1.714,4.1,5.546,5.546,0,0,0,3.885,1.579c5.155-.074,9.336-4.769,11.53-9.137a24.032,24.032,0,0,0,2.429-8.643Zm-30.489,2.224a6.525,6.525,0,0,0-4.643,1.923h.009a24.5,24.5,0,0,0-4.013,8.749,3.8,3.8,0,0,0,4.556,4.553,24.5,24.5,0,0,0,8.736-4.011,6.568,6.568,0,0,0-4.643-11.213ZM124.813,18.9h0a24.082,24.082,0,0,0-8.51,2.423,17.563,17.563,0,0,0-8.442,8.219,6.354,6.354,0,0,0,.637,5.965,6.568,6.568,0,0,0,4.917,2.871l.794-1.78a76.675,76.675,0,0,1,6.731-12.615c1.284-1.788,2.587-3.5,3.875-5.083ZM141.3,29.633a5.468,5.468,0,1,1,5.468-5.468,5.468,5.468,0,0,1-5.468,5.468Z" transform="translate(268 70)" fill="#fb3586"/>
    <path id="NinjaDash" d="M35.672,0h-7.54L11.388-26.156V0H4.212V-36.868h8.944L28.5-12.48V-36.868h7.176Zm14.82,0H43.576V-25.584h6.916ZM42.744-33.956A4.2,4.2,0,0,1,43.992-37a4.067,4.067,0,0,1,3.016-1.274,4.109,4.109,0,0,1,3.016,1.248,4.17,4.17,0,0,1,1.248,3.068,4.049,4.049,0,0,1-1.248,2.964,4.109,4.109,0,0,1-3.016,1.248,4.109,4.109,0,0,1-3.016-1.248A4.049,4.049,0,0,1,42.744-33.956Zm22.048,19.24V0H57.876V-25.584h6.708v3.172a7.135,7.135,0,0,1,3.12-2.86,9.615,9.615,0,0,1,4.264-.988,8.466,8.466,0,0,1,6.89,2.834,11.016,11.016,0,0,1,2.366,7.306V0H74.308V-14.924a5.578,5.578,0,0,0-1.17-3.692,4.373,4.373,0,0,0-3.562-1.4,4.367,4.367,0,0,0-3.484,1.508A5.607,5.607,0,0,0,64.792-14.716ZM88.244,1.56V-25.584H95.16V2.236A8.559,8.559,0,0,1,92.976,8.32a7.587,7.587,0,0,1-5.824,2.34,10.4,10.4,0,0,1-3.9-.572V4.316a9.654,9.654,0,0,0,2.132.26Q88.244,4.576,88.244,1.56Zm.416-32.578a4.024,4.024,0,0,1-1.248-2.99A4.2,4.2,0,0,1,88.66-37.05a4.067,4.067,0,0,1,3.016-1.274,4.109,4.109,0,0,1,3.016,1.248,4.17,4.17,0,0,1,1.248,3.068,4.024,4.024,0,0,1-1.248,2.99A4.153,4.153,0,0,1,91.676-29.8,4.153,4.153,0,0,1,88.66-31.018Zm12.324,24.05a6.819,6.819,0,0,1,2.132-5.252,10.154,10.154,0,0,1,5.512-2.5l6.292-.936q1.924-.26,1.924-1.82a2.981,2.981,0,0,0-1.118-2.392,4.853,4.853,0,0,0-3.2-.936,4.849,4.849,0,0,0-3.458,1.2,4.47,4.47,0,0,0-1.43,2.964l-6.136-1.3a9,9,0,0,1,3.276-5.876,11.266,11.266,0,0,1,7.7-2.548q5.72,0,8.424,2.73a9.519,9.519,0,0,1,2.7,6.994V-4.056A23.533,23.533,0,0,0,123.916,0h-6.344a14.41,14.41,0,0,1-.26-3.068q-2.444,3.8-7.54,3.8A8.888,8.888,0,0,1,103.4-1.56,7.205,7.205,0,0,1,100.984-6.968ZM111.228-4.42a5.923,5.923,0,0,0,4.03-1.378q1.586-1.378,1.586-4.55v-1.144l-5.772.884q-3.172.468-3.172,3.224a2.821,2.821,0,0,0,.884,2.106A3.361,3.361,0,0,0,111.228-4.42Zm27.04-2.236h5.72a10.977,10.977,0,0,0,7.956-3.016q3.12-3.016,3.12-8.736t-3.12-8.762a10.858,10.858,0,0,0-7.9-3.042h-5.772ZM144.248,0H131.092V-36.868H144.3q8.06,0,13.13,4.94t5.07,13.52q0,8.528-5.1,13.468T144.248,0ZM166.66-6.968a6.819,6.819,0,0,1,2.132-5.252,10.154,10.154,0,0,1,5.512-2.5l6.292-.936q1.924-.26,1.924-1.82a2.981,2.981,0,0,0-1.118-2.392,4.853,4.853,0,0,0-3.2-.936,4.849,4.849,0,0,0-3.458,1.2,4.47,4.47,0,0,0-1.43,2.964l-6.136-1.3a9,9,0,0,1,3.276-5.876,11.266,11.266,0,0,1,7.7-2.548q5.72,0,8.424,2.73a9.519,9.519,0,0,1,2.7,6.994V-4.056A23.534,23.534,0,0,0,189.592,0h-6.344a14.411,14.411,0,0,1-.26-3.068q-2.444,3.8-7.54,3.8a8.888,8.888,0,0,1-6.37-2.288A7.205,7.205,0,0,1,166.66-6.968ZM176.9-4.42a5.923,5.923,0,0,0,4.03-1.378q1.586-1.378,1.586-4.55v-1.144l-5.772.884q-3.172.468-3.172,3.224a2.821,2.821,0,0,0,.884,2.106A3.361,3.361,0,0,0,176.9-4.42Zm17.16-2.7,5.928-1.3a3.972,3.972,0,0,0,1.326,2.782,4.781,4.781,0,0,0,3.354,1.118,3.825,3.825,0,0,0,2.5-.728,2.264,2.264,0,0,0,.884-1.82q0-1.924-2.756-2.5l-3.38-.78a9.7,9.7,0,0,1-5.382-2.808,7.054,7.054,0,0,1-1.794-4.836,7.67,7.67,0,0,1,2.73-5.928,9.871,9.871,0,0,1,6.838-2.444,12.791,12.791,0,0,1,4.576.754,8.038,8.038,0,0,1,3.068,1.924,9.534,9.534,0,0,1,1.664,2.366,7.9,7.9,0,0,1,.728,2.34l-5.772,1.3a4.3,4.3,0,0,0-1.222-2.392,3.993,3.993,0,0,0-2.99-1.04,3.724,3.724,0,0,0-2.314.728,2.2,2.2,0,0,0-.962,1.82q0,1.872,2.34,2.288l3.64.78a10.461,10.461,0,0,1,5.642,2.86,7.042,7.042,0,0,1,1.95,4.992,7.942,7.942,0,0,1-2.6,5.928q-2.6,2.5-7.332,2.5a13.6,13.6,0,0,1-4.836-.806,8.451,8.451,0,0,1-3.3-2.08,10.264,10.264,0,0,1-1.768-2.548A8.375,8.375,0,0,1,194.064-7.124Zm33.072-7.9V0H220.22V-37.648h6.916v14.2q2.34-2.808,6.916-2.808,4.68,0,7.1,2.834a10.862,10.862,0,0,1,2.418,7.306V0h-6.916V-14.924a5.578,5.578,0,0,0-1.17-3.692,4.373,4.373,0,0,0-3.562-1.4,4.374,4.374,0,0,0-3.406,1.4A5.547,5.547,0,0,0,227.136-15.028Z" transform="translate(429 133)" fill="#090e30"/>
  </g>
</svg>
