<svg xmlns="http://www.w3.org/2000/svg" width="456.865" viewBox="0 0 456.865 238.527">
  <g id="Group_9338" data-name="Group 9338" transform="translate(-948.135 -2130.025)">
    <g id="Group_9336" data-name="Group 9336" transform="translate(612.145 -164.562)">
      <g id="Group_9280" data-name="Group 9280" transform="translate(412.667 2296.562)">
        <circle id="Ellipse_3047" data-name="Ellipse 3047" cx="17" cy="17" r="17" transform="translate(0.188 0)" fill="#fff"/>
        <g id="dropbox" transform="translate(7.068 7.668)">
          <g id="Group_9245" data-name="Group 9245">
            <path id="Path_11549" data-name="Path 11549" d="M9.968,6.385,4.984,10.04,0,6.385,4.984,2.73Z" transform="translate(0 -2.73)" fill="#00b8fa"/>
            <path id="Path_11550" data-name="Path 11550" d="M9.968,194.12l-4.984,3.655L0,194.12l4.984-3.655Z" transform="translate(0 -183.155)" fill="#00b8fa"/>
          </g>
          <g id="Group_9246" data-name="Group 9246" transform="translate(7.32)">
            <path id="Path_11551" data-name="Path 11551" d="M265.968,194.12l-4.984,3.655L256,194.12l4.984-3.655Z" transform="translate(-253.352 -183.155)" fill="#009ad2"/>
            <path id="Path_11552" data-name="Path 11552" d="M265.968,6.385l-4.984,3.655L256,6.385l4.984-3.655Z" transform="translate(-253.352 -2.73)" fill="#009ad2"/>
            <path id="Path_11553" data-name="Path 11553" d="M190.648,321.535,188,325.19l2.648,3.655,4.984-3.655Z" transform="translate(-188 -309.121)" fill="#009ad2"/>
          </g>
          <path id="Path_11554" data-name="Path 11554" d="M128,325.19l4.984,3.655v-7.31Z" transform="translate(-123.016 -309.121)" fill="#00b8fa"/>
        </g>
      </g>
      <g id="Group_9281" data-name="Group 9281" transform="matrix(0.891, -0.454, 0.454, 0.891, 335.99, 2329.133)">
        <circle id="Ellipse_3048" data-name="Ellipse 3048" cx="17" cy="17" r="17" transform="translate(0 0)" fill="#fff"/>
        <g id="google-drive" transform="translate(6.071 7.753)">
          <path id="Path_11555" data-name="Path 11555" d="M13.549,338.708v6.111H5.886a.177.177,0,0,1-.09-.025.18.18,0,0,1-.065-.064l-3.322-5.749a.182.182,0,0,1,.157-.273Z" transform="translate(-2.278 -325.315)" fill="#2196f3"/>
          <path id="Path_11556" data-name="Path 11556" d="M14.643,34.772,3.517,53.978a.18.18,0,0,1-.065-.064L.129,48.165l-.105-.182a.18.18,0,0,1,0-.182L7.686,34.59a.184.184,0,0,1,.067-.067.187.187,0,0,1,.09-.024h6.642a.182.182,0,0,1,.157.273Z" transform="translate(0.001 -34.499)" fill="#4caf50"/>
          <path id="Path_11557" data-name="Path 11557" d="M75.8,34.5H74.439a.182.182,0,0,1,.157.273L64.137,52.828l.628,1.087a.18.18,0,0,0,.065.064L75.957,34.773A.182.182,0,0,0,75.8,34.5Z" transform="translate(-61.313 -34.5)" fill="#43a047"/>
          <path id="Path_11558" data-name="Path 11558" d="M190.9,47.893a.181.181,0,0,1-.025.091l-3.323,5.751a.182.182,0,0,1-.313,0L176.116,34.524a.187.187,0,0,1,.09-.024h6.853a.181.181,0,0,1,.157.09L190.879,47.8A.179.179,0,0,1,190.9,47.893Z" transform="translate(-168.362 -34.5)" fill="#ffc107"/>
          <path id="Path_11559" data-name="Path 11559" d="M312.1,47.8l-7.662-13.212a.182.182,0,0,0-.157-.09h-1.361a.182.182,0,0,1,.157.09L310.744,47.8a.18.18,0,0,1,0,.182l-2.8,4.844.524.9a.181.181,0,0,0,.313,0l3.323-5.751a.18.18,0,0,0,0-.182Z" transform="translate(-289.587 -34.501)" fill="#ffb300"/>
          <path id="Path_11560" data-name="Path 11560" d="M267.271,338.708a.181.181,0,0,1-.025.091l-3.323,5.751-.1.178a.182.182,0,0,1-.158.091H256v-6.111Z" transform="translate(-244.729 -325.315)" fill="#2196f3"/>
          <path id="Path_11561" data-name="Path 11561" d="M402.743,338.708a.181.181,0,0,1-.025.091L399.4,344.55l-.1.178a.182.182,0,0,1-.158.091H400.5a.182.182,0,0,0,.158-.091l.1-.178,3.323-5.751a.181.181,0,0,0,.025-.091Z" transform="translate(-381.562 -325.315)" fill="#1e88e5"/>
        </g>
      </g>
      <g id="microsoft" transform="translate(485.021 2313.841) rotate(19)">
        <circle id="Ellipse_3039" data-name="Ellipse 3039" cx="17" cy="17" r="17" transform="translate(0.376 0)" fill="#2896ff"/>
        <path id="Path_11562" data-name="Path 11562" d="M81.989,144.089a5.234,5.234,0,0,0-4.591,2.717,4.258,4.258,0,0,0-6.251,3.762,4.294,4.294,0,0,0,.032.513,3.411,3.411,0,0,0-1.908,5.786l11.647,11.647a17,17,0,0,0,15.971-11.694L85.879,145.81l-.005.005A5.222,5.222,0,0,0,81.989,144.089Z" transform="translate(-63.357 -134.14)" fill="#1e73be"/>
        <g id="Group_9247" data-name="Group 9247" transform="translate(4.915 9.949)">
          <path id="Path_11563" data-name="Path 11563" d="M76.664,151.559a5.078,5.078,0,0,1,7.516-3.58,5.108,5.108,0,0,1,1.377,1.148A4.381,4.381,0,0,1,87.2,148.8a5.237,5.237,0,0,0-9.8-1.991,4.258,4.258,0,0,0-6.251,3.762,4.281,4.281,0,0,0,.032.513,3.411,3.411,0,0,0,.5,6.785h2.249a4.121,4.121,0,0,1,2.732-6.309Z" transform="translate(-68.272 -144.09)" fill="#fff"/>
          <path id="Path_11564" data-name="Path 11564" d="M174.541,212.773a2.7,2.7,0,0,0-2.4-2.68,3.595,3.595,0,0,0-3.575-3.984,3.578,3.578,0,0,0-1.91.55,4.283,4.283,0,0,0-7.925,2.149h0a3.331,3.331,0,1,0,0,6.662h13.434v-.019A2.7,2.7,0,0,0,174.541,212.773Z" transform="translate(-149.612 -200.609)" fill="#fff"/>
        </g>
      </g>
    </g>
    <g id="Group_9335" data-name="Group 9335" transform="translate(1145.42 2130.025)">
      <g id="Group_9278" data-name="Group 9278" transform="translate(0 0)">
        <path id="Path_11618" data-name="Path 11618" d="M1163.477,696.43l3,18.811,6.337-25.08s-8.881-4.31-9.273-2.742S1163.477,696.43,1163.477,696.43Z" transform="translate(-1023.832 -657.838)" fill="#07085b"/>
        <path id="Path_11619" data-name="Path 11619" d="M1310.459,932.694l2.743,32.52-28.7-1.372,3.309-28.8Z" transform="translate(-1120.404 -853.617)" fill="#ffc0bb"/>
        <path id="Path_11620" data-name="Path 11620" d="M1293.055,948.74l1.574-13.7,22.645-2.351.95,11.262C1313.721,948.442,1305.624,953.093,1293.055,948.74Z" transform="translate(-1127.219 -853.616)" fill="#f99893"/>
        <g id="Group_9267" data-name="Group 9267" transform="translate(137.031 19.153)">
          <path id="Path_11621" data-name="Path 11621" d="M1162.311,807.312c1.725,3.569.81,7.581-2.045,8.961s-6.568-.393-8.293-3.962-.81-7.58,2.045-8.961S1160.585,803.743,1162.311,807.312Z" transform="translate(-1151.1 -769.299)" fill="#f99893"/>
          <path id="Path_11622" data-name="Path 11622" d="M1184.153,691.9a56.75,56.75,0,0,1-3.956-13.885c-.15-.931-.354-1.85-.575-2.767a30.663,30.663,0,1,1,60.408-9.142,6.625,6.625,0,0,1,5.927-.842c3.734,1.392,5.351,6.3,3.612,10.972s-6.178,7.324-9.912,5.932a5.85,5.85,0,0,1-1.425-.779c-.576,15.079-12.119,27.423-26.858,28.113a27.511,27.511,0,0,1-19.12-6.576C1188.918,700.472,1185.769,695.7,1184.153,691.9Z" transform="translate(-1173.151 -637.384)" fill="#ffc0bb"/>
          <path id="Path_11623" data-name="Path 11623" d="M1286.833,789.14c-.059,1.757-.072,3.471-.163,5.151-.1,1.554-.274,3.787-1.242,4.971a3.735,3.735,0,0,0-.922,2.271,3.622,3.622,0,0,0,1.339,2.839,5.914,5.914,0,0,0,5.277,1.029,7.3,7.3,0,0,1-4.314-2.012,2.1,2.1,0,0,1-.051-2.983,5.7,5.7,0,0,0,1.295-3.435,14.346,14.346,0,0,0-.012-2.7A18.357,18.357,0,0,0,1286.833,789.14Z" transform="translate(-1257.434 -758.346)" fill="#f99893"/>
          <path id="Path_11624" data-name="Path 11624" d="M1346.092,789.578a2.676,2.676,0,1,0,2.548-2.8A2.676,2.676,0,0,0,1346.092,789.578Z" transform="translate(-1306.522 -756.462)" fill="#333"/>
          <path id="Path_11625" data-name="Path 11625" d="M1233.292,802.3a2.676,2.676,0,1,0,2.548-2.8A2.676,2.676,0,0,0,1233.292,802.3Z" transform="translate(-1216.611 -766.6)" fill="#333"/>
          <path id="Path_11626" data-name="Path 11626" d="M1288.889,889.889a19.029,19.029,0,0,1-9.789,4.656c-3.806.481-7.168-.68-10.409-2.676a13.514,13.514,0,0,0,10.495,3.373A15.887,15.887,0,0,0,1288.889,889.889Z" transform="translate(-1244.829 -838.651)" fill="#f99893"/>
          <path id="Path_11627" data-name="Path 11627" d="M1329.546,758.318c3.772-1.166,5.907-1.231,7.631-1.021,3.761.5,5.877,2.168,7.192,2.744a8.955,8.955,0,0,0-14.823-1.723Z" transform="translate(-1293.336 -731.246)" fill="#07085b"/>
          <path id="Path_11628" data-name="Path 11628" d="M1215.639,769.639a8.956,8.956,0,0,0-14.206,4.569c1.18-.822,2.927-2.862,6.521-4.089C1209.6,769.581,1211.7,769.228,1215.639,769.639Z" transform="translate(-1191.219 -741.24)" fill="#07085b"/>
        </g>
        <path id="Path_11629" data-name="Path 11629" d="M979.09,1018.937s-27.006,3.429-33.864,9-39.866,87.448-39.866,87.448l27.435,32.15,58.3.428s43.724,23.577,71.159,1.286,13.289-99.879-2.572-116.6-44.153-16.289-44.153-16.289S989.807,1034.369,979.09,1018.937Z" transform="translate(-818.195 -920.308)" fill="#02ccc0"/>
        <path id="Path_11630" data-name="Path 11630" d="M1516.448,1229.73a113.249,113.249,0,0,0-1.978,13.536c-.233,2.271-.333,4.553-.464,6.833-.068,2.284-.122,4.568-.09,6.856a90.153,90.153,0,0,0,1.126,13.682,45,45,0,0,0,3.978,13.105,67.227,67.227,0,0,1-2.615-13.291c-.5-4.482-.669-9-.727-13.521-.094-4.52.017-9.048.16-13.58Q1516.078,1236.554,1516.448,1229.73Z" transform="translate(-1303.255 -1090.378)" fill="#fff"/>
        <path id="Path_11631" data-name="Path 11631" d="M1039.827,1214.942c-1.234,6.641-2.54,13.257-3.868,19.862-1.356,6.6-2.759,13.185-4.356,19.719-1.579,6.537-3.334,13.031-5.457,19.4a95,95,0,0,1-3.643,9.371,36.084,36.084,0,0,1-5.181,8.6,32.832,32.832,0,0,0,5.955-8.211,77.3,77.3,0,0,0,4.164-9.291c1.214-3.169,2.254-6.4,3.241-9.638.951-3.251,1.821-6.524,2.634-9.808.774-3.294,1.517-6.594,2.184-9.909.643-3.32,1.276-6.64,1.808-9.978C1038.41,1228.384,1039.268,1221.676,1039.827,1214.942Z" transform="translate(-907.438 -1078.591)" fill="#fff"/>
        <path id="Path_11632" data-name="Path 11632" d="M1061.341,1555.2c.171-1.357,10.474-2.873,14.262-3.068,2.869-.148,21.889-.784,28.359-1.076l-.475,1.664.1,7.346,1.063,4.869c-5.676.359-19.551.9-22.44,1.474-3.86.763-10.554,3.673-10.554,3.673s-2.784-.633.754-2.159a16.973,16.973,0,0,0,5.678-4.069c.486-.543-.041-1.51-.394-1.418-9.633,2.524-10.624,2.942-10.624,2.942s-11.322-.064-.064-2.608c6.749-1.525,9.167-2.412,9.768-3.169.256-.323-.2-1.42-.612-1.445-5.846-.361-16.34,1.712-13.466.352,2.344-1.108,9.725-2.323,12.6-2.781.176-.028.461-1.1-.323-1.163C1069.4,1554.1,1061.182,1556.456,1061.341,1555.2Z" transform="translate(-942.523 -1346.496)" fill="#ffc0bb"/>
        <path id="Path_11633" data-name="Path 11633" d="M1318.125,1492.094c-2.364.563-4.762.975-7.136,1.475-4.779.871-9.573,1.63-14.38,2.305-4.814.632-9.634,1.213-14.467,1.68-4.814.478-9.71.887-14.475,1.154l-.642.036-.141.555a39.453,39.453,0,0,0-.88,4.808,38.529,38.529,0,0,0-.284,4.856,31.231,31.231,0,0,0,.421,4.86,22.424,22.424,0,0,0,1.411,4.688l.055.13.1.07,5.295,3.552q2.646,1.778,5.322,3.513-2.489-2-5.019-3.934l-4.924-3.8a21.367,21.367,0,0,1-1.072-4.4,31.1,31.1,0,0,1-.227-4.663,43.76,43.76,0,0,1,.425-4.667,39.58,39.58,0,0,1,.79-4c2.286-.075,4.475-.224,6.718-.387,2.434-.18,4.868-.373,7.295-.628,4.855-.5,9.7-1.107,14.523-1.878s9.616-1.719,14.367-2.841c2.367-.6,4.737-1.188,7.067-1.923,2.349-.66,4.65-1.483,6.943-2.3C1322.845,1490.934,1320.507,1491.6,1318.125,1492.094Z" transform="translate(-1105.432 -1298.119)" fill="#fff"/>
        <path id="Path_11634" data-name="Path 11634" d="M481.586,1302.61h91.877a6.944,6.944,0,0,1,6.426,4.312l28.133,68.669h50.8a2.572,2.572,0,0,1,2.572,2.572h0a2.572,2.572,0,0,1-2.572,2.572H512.165a6.875,6.875,0,0,1-6.273-4.061l-29.573-65.929A5.772,5.772,0,0,1,481.586,1302.61Z" transform="translate(-475.807 -1148.469)" fill="#07085b"/>
        <path id="Path_11635" data-name="Path 11635" d="M1139,563.79s-9,.29.445-7.323,34.814-16.54,51.073-7.954c0,0,3.251-6.913,7.952-5.262s-3.056,6.406-3.056,6.406,6-.194,7.834,2.751c1.354,2.177-2.321,2.272-4.331,2.174,3.417.581,16.515,8.854,9.942,35.265-2.337-.514-15.652-19.822-15.652-19.822s-30.451,16.917-27.439,3.465c0,0-31.547,19.688-27.072,3.425C1138.7,576.915,1126.5,577.809,1139,563.79Z" transform="translate(-999.934 -542.996)" fill="#07085b"/>
        <path id="Path_11636" data-name="Path 11636" d="M1429.627,649.173a5.768,5.768,0,0,0-5.234,1.266c-2.712,2.152-2.412,9.714-2.412,9.714s-12.944,8.347-11.58-26.974c1.452-37.576,10.8,3.014,10.8,3.014Z" transform="translate(-1220.674 -602.163)" fill="#07085b"/>
        <ellipse id="Ellipse_3046" data-name="Ellipse 3046" cx="5.806" cy="7.941" rx="5.806" ry="7.941" transform="translate(49.754 186.792) rotate(-11.908)" fill="#fff"/>
      </g>
    </g>
    <g id="Cloud" transform="translate(1114 1949.047)">
      <g id="Group_9303" data-name="Group 9303" transform="translate(-253 129)">
        <path id="Path_11652" data-name="Path 11652" d="M257.977,159.868A33.995,33.995,0,0,0,218.466,119.3c-.871-.162-1.75-.013-2.642-.107A39.821,39.821,0,0,0,179.357,96H166.819a39.845,39.845,0,0,0-40.088,39.8c0,.3.015.445.022.74a33.553,33.553,0,0,0,6.156,66.6h123.1a21.672,21.672,0,0,0,1.966-43.276Z" fill="#407bff"/>
        <path id="Path_11653" data-name="Path 11653" d="M257.977,159.868A33.995,33.995,0,0,0,218.466,119.3c-.871-.162-1.75-.013-2.642-.107A39.821,39.821,0,0,0,179.357,96H166.819a39.845,39.845,0,0,0-40.088,39.8c0,.3.015.445.022.74a33.553,33.553,0,0,0,6.156,66.6h123.1a21.672,21.672,0,0,0,1.966-43.276Z" fill="#fff" opacity="0.5" style="isolation: isolate"/>
        <path id="Path_11654" data-name="Path 11654" d="M256.439,159.868A33.995,33.995,0,0,0,216.928,119.3c-.871-.162-1.75-.013-2.642-.107A39.821,39.821,0,0,0,177.819,96h0a39.845,39.845,0,0,0-40.088,39.8c0,.3.015.445.022.74a33.553,33.553,0,0,0,6.156,66.6H254.473a21.672,21.672,0,0,0,1.966-43.276Z" transform="translate(1.538)" fill="#fff" opacity="0.4" style="isolation: isolate"/>
      </g>
    </g>
  </g>
</svg>
